<svg version="1.2" xmlns="http://www.w3.org/2000/svg" viewBox="0 0 512 512" width="512" height="512">
	<title>twitter-tile-svg</title>
	<style>
		.s0 { fill: #73757c } 
		.s1 { fill: #ffffff } 
	</style>
	<rect id="Layer" class="s0" width="512" height="512" rx="15"></rect>
	<path id="Layer" class="s1" d="m402 189c2.5 37.1-5.4 74.1-22.9 106.9c-17.4 32.9-43.7 60.1-75.9 78.8c-32.2 18.6-68.9 27.8-106 26.7c-37.2-1.2-73.3-12.8-104.2-33.4c37 6 76-5 105-29c-30-1-57-21-67-50c11 2 22 2 32-1c-32-7-55-36-56-69c10 5 21 7 32 7c-7.6-4.7-14.3-10.9-19.5-18.2c-5.3-7.2-9-15.5-11.1-24.2c-2-8.8-2.3-17.8-0.8-26.7c1.4-8.8 4.6-17.3 9.4-24.9c35 45 89 71 145 74c-3.2-15.2-1.3-31.1 5.3-45.2c6.6-14.1 17.6-25.7 31.3-33c13.8-7.4 29.5-10 44.9-7.6c15.4 2.3 29.6 9.7 40.5 20.8c16-3 31-9 45-17c-6 17-17 31-32 40c14-2 28-6 40-12c-9 15-21 27-35 37z"/>
</svg>